<svg width="18" height="19" viewBox="0 0 18 19" fill="none" xmlns="http://www.w3.org/2000/svg">
<g id="icon">
<mask id="mask0_1038_21198" style="mask-type:alpha" maskUnits="userSpaceOnUse" x="0" y="0" width="18" height="19">
<rect id="Bounding box" y="0.5" width="18" height="18" fill="var(--sys-primary)"/>
</mask>
<g mask="url(#mask0_1038_21198)">
<path id="auto_awesome" d="M13.8752 6.9501L13.0877 5.1876L11.3252 4.4001L13.0877 3.59385L13.8752 1.8501L14.6627 3.59385L16.4252 4.4001L14.6627 5.1876L13.8752 6.9501ZM13.8752 17.1501L13.0877 15.4063L11.3252 14.6001L13.0877 13.8126L13.8752 12.0501L14.6627 13.8126L16.4252 14.6001L14.6627 15.4063L13.8752 17.1501ZM6.65645 14.6001L5.08145 11.0938L1.5752 9.5001L5.08145 7.90635L6.65645 4.4001L8.2502 7.90635L11.7564 9.5001L8.2502 11.0938L6.65645 14.6001ZM6.65645 11.8626L7.40645 10.2501L9.01894 9.5001L7.40645 8.7501L6.65645 7.1376L5.90645 8.7501L4.29395 9.5001L5.90645 10.2501L6.65645 11.8626Z" fill="var(--sys-primary)"/>
</g>
</g>
</svg>
