<svg width="18" height="18" viewBox="0 0 18 18" fill="none" xmlns="http://www.w3.org/2000/svg">
<path d="M6.34283 17.2211L4.85575 14.7149L2.032 14.0961L2.30762 11.1893L0.394287 9.00009L2.30762 6.81093L2.032 3.90405L4.85575 3.2853L6.34283 0.779053L8.99991 1.90718L11.657 0.779053L13.1441 3.2853L15.9678 3.90405L15.6922 6.81093L17.6055 9.00009L15.6922 11.1893L15.9678 14.0961L13.1441 14.7149L11.657 17.2211L8.99991 16.093L6.34283 17.2211ZM6.87491 15.6251L8.99991 14.7245L11.1505 15.6251L12.3332 13.6251L14.6249 13.0995L14.4166 10.7501L15.9582 9.00009L14.4166 7.22447L14.6249 4.87509L12.3332 4.37509L11.1249 2.37509L8.99991 3.27572L6.84929 2.37509L5.66658 4.37509L3.37491 4.87509L3.58325 7.22447L2.04158 9.00009L3.58325 10.7501L3.37491 13.1251L5.66658 13.6251L6.87491 15.6251Z" fill="var(--sys-on-surface-variant)"/>
<path d="M7.12774 8.55565C6.76103 8.55565 6.44805 8.42602 6.1888 8.16676C5.92954 7.90758 5.79991 7.5946 5.79991 7.22782C5.79991 6.86111 5.92954 6.54813 6.1888 6.28887C6.44805 6.02969 6.76103 5.90009 7.12774 5.90009C7.49445 5.90009 7.80743 6.02969 8.06669 6.28887C8.32594 6.54813 8.45557 6.86111 8.45557 7.22782C8.45557 7.5946 8.32594 7.90758 8.06669 8.16676C7.80743 8.42602 7.49445 8.55565 7.12774 8.55565ZM7.12753 7.92605C7.32138 7.92605 7.48623 7.85819 7.62208 7.72247C7.75801 7.58676 7.82597 7.42198 7.82597 7.22813C7.82597 7.03422 7.75811 6.86933 7.6224 6.73348C7.48668 6.59762 7.32187 6.5297 7.12795 6.5297C6.9341 6.5297 6.76922 6.59755 6.63329 6.73327C6.49744 6.86898 6.42951 7.03376 6.42951 7.22761C6.42951 7.42153 6.49737 7.58641 6.63308 7.72227C6.7688 7.85812 6.93361 7.92605 7.12753 7.92605ZM10.7722 12.2001C10.4054 12.2001 10.0924 12.0705 9.83324 11.8112C9.57399 11.552 9.44436 11.239 9.44436 10.8723C9.44436 10.5056 9.57399 10.1926 9.83324 9.93332C10.0924 9.67406 10.4054 9.54444 10.7722 9.54444C11.1389 9.54444 11.4519 9.67406 11.7111 9.93332C11.9703 10.1926 12.0999 10.5056 12.0999 10.8723C12.0999 11.239 11.9703 11.552 11.7111 11.8112C11.4519 12.0705 11.1389 12.2001 10.7722 12.2001ZM10.7719 11.5705C10.9658 11.5705 11.1307 11.5026 11.2665 11.3669C11.4024 11.2312 11.4703 11.0664 11.4703 10.8725C11.4703 10.6786 11.4025 10.5138 11.2667 10.3779C11.131 10.242 10.9662 10.174 10.7724 10.174C10.5785 10.174 10.4136 10.2419 10.2777 10.3776C10.1419 10.5133 10.074 10.6781 10.074 10.8721C10.074 11.0659 10.1418 11.2308 10.2775 11.3667C10.4132 11.5026 10.578 11.5705 10.7719 11.5705ZM6.27862 12.1597L5.84031 11.7214L11.6213 5.94039L12.0596 6.3787L6.27862 12.1597Z" fill="var(--sys-on-surface-variant)"/>
</svg>
