<svg width="101" height="32" viewBox="0 0 101 32" fill="none" xmlns="http://www.w3.org/2000/svg">
<path d="M2.66667 12.0003C3.72754 12.0003 4.74495 12.4218 5.4951 13.1719C6.24524 13.922 6.66667 14.9395 6.66667 16.0003C6.66667 17.0612 6.24524 18.0786 5.4951 18.8288C4.74495 19.5789 3.72754 20.0003 2.66667 20.0003V22.667C2.66667 23.3742 2.94762 24.0525 3.44772 24.5526C3.94782 25.0527 4.62609 25.3337 5.33334 25.3337H26.6667C27.3739 25.3337 28.0522 25.0527 28.5523 24.5526C29.0524 24.0525 29.3333 23.3742 29.3333 22.667V20.0003C28.2725 20.0003 27.2551 19.5789 26.5049 18.8288C25.7548 18.0786 25.3333 17.0612 25.3333 16.0003C25.3333 14.9395 25.7548 13.922 26.5049 13.1719C27.2551 12.4218 28.2725 12.0003 29.3333 12.0003V9.33366C29.3333 8.62641 29.0524 7.94814 28.5523 7.44804C28.0522 6.94794 27.3739 6.66699 26.6667 6.66699H5.33334C4.62609 6.66699 3.94782 6.94794 3.44772 7.44804C2.94762 7.94814 2.66667 8.62641 2.66667 9.33366V12.0003Z" stroke="black" stroke-width="1.66667" stroke-linecap="round" stroke-linejoin="round"/>
<path d="M12 12H12.0133" stroke="black" stroke-width="2.66667" stroke-linecap="round" stroke-linejoin="round"/>
<path d="M20 12L12 20" stroke="black" stroke-width="1.77778" stroke-linecap="round" stroke-linejoin="round"/>
<path d="M20 20H20.0133" stroke="black" stroke-width="2.66667" stroke-linecap="round" stroke-linejoin="round"/>
<path d="M52.3896 25L50.8281 22.8799L49.8379 22.0039L46.207 17.332H49.1016L51.7803 20.9248L52.8975 21.9658L55.208 25H52.3896ZM46.334 25.2031C45.0137 25.2031 43.7865 24.9661 42.6523 24.4922C41.5182 24.0098 40.528 23.3369 39.6816 22.4736C38.8438 21.6104 38.1878 20.599 37.7139 19.4395C37.2484 18.2715 37.0156 17.002 37.0156 15.6309C37.0156 14.2767 37.2484 13.0199 37.7139 11.8604C38.1794 10.7008 38.8311 9.68945 39.6689 8.82617C40.5068 7.96289 41.4886 7.29004 42.6143 6.80762C43.7484 6.3252 44.9756 6.08398 46.2959 6.08398C47.6247 6.08398 48.8561 6.3252 49.9902 6.80762C51.1243 7.29004 52.1104 7.96289 52.9482 8.82617C53.7946 9.68945 54.4505 10.7008 54.916 11.8604C55.39 13.0199 55.627 14.2852 55.627 15.6562C55.627 17.0189 55.39 18.2799 54.916 19.4395C54.4505 20.599 53.7946 21.6104 52.9482 22.4736C52.1104 23.3369 51.1286 24.0098 50.0029 24.4922C48.8773 24.9661 47.6543 25.2031 46.334 25.2031ZM46.2832 22.7402C47.2396 22.7402 48.124 22.5625 48.9365 22.207C49.749 21.8431 50.4515 21.3395 51.0439 20.6963C51.6364 20.0531 52.0977 19.2998 52.4277 18.4365C52.7578 17.5732 52.9229 16.638 52.9229 15.6309C52.9229 14.5983 52.7536 13.6504 52.415 12.7871C52.085 11.9238 51.6152 11.1748 51.0059 10.54C50.4049 9.90527 49.7025 9.41439 48.8984 9.06738C48.0944 8.72038 47.2227 8.54688 46.2832 8.54688C45.3607 8.54688 44.5016 8.72038 43.7061 9.06738C42.9105 9.41439 42.2122 9.90527 41.6113 10.54C41.0189 11.1748 40.5534 11.9238 40.2148 12.7871C39.8848 13.6504 39.7197 14.5983 39.7197 15.6309C39.7197 16.6465 39.8805 17.5902 40.2021 18.4619C40.5322 19.3252 40.9935 20.0785 41.5859 20.7217C42.1784 21.3564 42.8724 21.8516 43.668 22.207C44.472 22.5625 45.3438 22.7402 46.2832 22.7402ZM57.71 30.332V11.5049H60.2618V13.3584H60.5664L60.1729 14.3232V21.6611L60.6553 23.21H60.3506V30.332H57.71ZM64.9082 25.2031C63.6302 25.2031 62.5384 24.89 61.6329 24.2637C60.7357 23.6289 60.0459 22.7826 59.5635 21.7246C59.0811 20.6667 58.8399 19.5029 58.8399 18.2334C58.8399 16.8538 59.0896 15.6436 59.5889 14.6025C60.0967 13.5615 60.8034 12.7533 61.709 12.1777C62.6146 11.5938 63.6726 11.3018 64.8829 11.3018C66.0931 11.3018 67.1849 11.5938 68.1582 12.1777C69.14 12.7617 69.9144 13.5742 70.4815 14.6152C71.0485 15.6562 71.3321 16.8623 71.3321 18.2334C71.3321 19.596 71.0528 20.8021 70.4942 21.8516C69.9356 22.8926 69.1696 23.7135 68.1963 24.3145C67.223 24.9069 66.127 25.2031 64.9082 25.2031ZM64.4639 22.8545C65.3103 22.8545 66.0508 22.6514 66.6856 22.2451C67.3288 21.8304 67.8324 21.276 68.1963 20.582C68.5603 19.8796 68.7422 19.0967 68.7422 18.2334C68.7422 17.3447 68.5518 16.5534 68.1709 15.8594C67.7985 15.1654 67.2865 14.6237 66.6348 14.2344C65.9916 13.8451 65.2595 13.6504 64.4385 13.6504C63.6345 13.6504 62.9151 13.8451 62.2803 14.2344C61.654 14.6152 61.1547 15.1527 60.7823 15.8467C60.4183 16.5322 60.2364 17.332 60.2364 18.2461C60.2364 19.1855 60.4226 19.998 60.795 20.6836C61.1758 21.3691 61.6836 21.9023 62.3184 22.2832C62.9532 22.6641 63.6683 22.8545 64.4639 22.8545ZM79.5211 25.2031C78.5477 25.2031 77.6379 25.0254 76.7916 24.6699C75.9452 24.306 75.2046 23.8024 74.5699 23.1592C73.9351 22.516 73.44 21.7712 73.0845 20.9248C72.7291 20.07 72.5513 19.1559 72.5513 18.1826C72.5513 17.2178 72.7291 16.3206 73.0845 15.4912C73.44 14.6533 73.9351 13.9212 74.5699 13.2949C75.2046 12.6602 75.9452 12.1693 76.7916 11.8223C77.6379 11.4753 78.5477 11.3018 79.5211 11.3018C80.8075 11.3018 81.9797 11.6064 83.0377 12.2158C84.0956 12.8252 84.9377 13.6504 85.564 14.6914C86.1988 15.7324 86.5162 16.8962 86.5162 18.1826C86.5162 19.1559 86.3342 20.07 85.9703 20.9248C85.6148 21.7712 85.1112 22.516 84.4595 23.1592C83.8163 23.8024 83.0715 24.306 82.2252 24.6699C81.3873 25.0254 80.4859 25.2031 79.5211 25.2031ZM79.5211 22.8672C80.342 22.8672 81.0868 22.6556 81.7554 22.2324C82.4325 21.8092 82.9699 21.2422 83.3677 20.5312C83.774 19.8118 83.9771 19.0163 83.9771 18.1445C83.9771 17.2897 83.774 16.5238 83.3677 15.8467C82.9699 15.1696 82.4325 14.6322 81.7554 14.2344C81.0868 13.8366 80.342 13.6377 79.5211 13.6377C78.6832 13.6377 77.9299 13.8408 77.2613 14.2471C76.6011 14.6449 76.0764 15.1865 75.6871 15.8721C75.2977 16.5576 75.1031 17.3278 75.1031 18.1826C75.1031 19.0459 75.2977 19.833 75.6871 20.5439C76.0764 21.2464 76.6011 21.8092 77.2613 22.2324C77.9299 22.6556 78.6832 22.8672 79.5211 22.8672ZM87.9137 25V11.4922H90.4781V13.1807H90.9986L90.0211 14.2217C90.2327 13.5869 90.5628 13.0537 91.0113 12.6221C91.4684 12.182 92.0058 11.8519 92.6236 11.6318C93.2499 11.4033 93.9186 11.2891 94.6295 11.2891C95.7213 11.2891 96.61 11.5303 97.2955 12.0127C97.9895 12.4951 98.4973 13.1172 98.8189 13.8789C99.149 14.6406 99.3141 15.4447 99.3141 16.291V25H96.7242V16.8496C96.7242 15.7747 96.4576 14.9665 95.9244 14.4248C95.3997 13.8831 94.6803 13.6123 93.7662 13.6123C93.1568 13.6123 92.6025 13.7393 92.1031 13.9932C91.6122 14.2386 91.2229 14.6025 90.9352 15.085C90.6474 15.5674 90.5035 16.1556 90.5035 16.8496V25H87.9137Z" fill="black"/>
</svg>
