<svg width="105" height="32" viewBox="0 0 105 32" fill="none" xmlns="http://www.w3.org/2000/svg">
<rect width="32" height="32" rx="16" fill="black"/>
<path d="M6 13C6.79565 13 7.55871 13.3161 8.12132 13.8787C8.68393 14.4413 9 15.2044 9 16C9 16.7956 8.68393 17.5587 8.12132 18.1213C7.55871 18.6839 6.79565 19 6 19V21C6 21.5304 6.21071 22.0391 6.58579 22.4142C6.96086 22.7893 7.46957 23 8 23H24C24.5304 23 25.0391 22.7893 25.4142 22.4142C25.7893 22.0391 26 21.5304 26 21V19C25.2044 19 24.4413 18.6839 23.8787 18.1213C23.3161 17.5587 23 16.7956 23 16C23 15.2044 23.3161 14.4413 23.8787 13.8787C24.4413 13.3161 25.2044 13 26 13V11C26 10.4696 25.7893 9.96086 25.4142 9.58579C25.0391 9.21071 24.5304 9 24 9H8C7.46957 9 6.96086 9.21071 6.58579 9.58579C6.21071 9.96086 6 10.4696 6 11V13Z" stroke="white" stroke-width="1.25" stroke-linecap="round" stroke-linejoin="round"/>
<path d="M13 13H13.01" stroke="white" stroke-width="2" stroke-linecap="round" stroke-linejoin="round"/>
<path d="M19 13L13 19" stroke="white" stroke-width="1.33333" stroke-linecap="round" stroke-linejoin="round"/>
<path d="M19 19H19.01" stroke="white" stroke-width="2" stroke-linecap="round" stroke-linejoin="round"/>
<path d="M54.1369 26.4889L48.1387 17.056H51.0009L57.0489 26.4889H54.1369ZM49.6569 24.2987C47.981 24.2987 46.5043 23.9253 45.2267 23.1787C43.9656 22.4154 42.9701 21.3618 42.24 20.0178C41.5265 18.6572 41.1698 17.0809 41.1698 15.2889C41.1698 13.5135 41.5265 11.9538 42.24 10.6098C42.9701 9.24918 43.9656 8.18726 45.2267 7.424C46.5043 6.66074 47.981 6.27911 49.6569 6.27911C51.3659 6.27911 52.8593 6.66074 54.1369 7.424C55.4145 8.18726 56.4018 9.24918 57.0987 10.6098C57.8122 11.9538 58.1689 13.5135 58.1689 15.2889C58.1689 17.0809 57.8122 18.6572 57.0987 20.0178C56.4018 21.3618 55.4145 22.4154 54.1369 23.1787C52.8593 23.9253 51.3659 24.2987 49.6569 24.2987ZM49.6818 22.0836C50.8764 22.0836 51.9218 21.8098 52.8178 21.2622C53.7138 20.7147 54.4024 19.9348 54.8836 18.9227C55.3813 17.9105 55.6302 16.6993 55.6302 15.2889C55.6302 13.8785 55.3813 12.6673 54.8836 11.6551C54.4024 10.643 53.7138 9.87141 52.8178 9.34044C51.9218 8.79289 50.8764 8.51911 49.6818 8.51911C48.4871 8.51911 47.4418 8.79289 46.5458 9.34044C45.6498 9.87141 44.9529 10.643 44.4551 11.6551C43.9573 12.6673 43.7084 13.8785 43.7084 15.2889C43.7084 16.6993 43.9573 17.9105 44.4551 18.9227C44.9529 19.9348 45.6498 20.7147 46.5458 21.2622C47.4418 21.8098 48.4871 22.0836 49.6818 22.0836ZM61.0397 29.4756V11.456H63.2797L63.5286 13.3973C63.794 13.0157 64.1259 12.659 64.5241 12.3271C64.9223 11.9787 65.3952 11.6966 65.9428 11.4809C66.5069 11.2652 67.1623 11.1573 67.909 11.1573C69.1037 11.1573 70.149 11.4477 71.045 12.0284C71.9576 12.6092 72.6628 13.3973 73.1606 14.3929C73.6749 15.3719 73.9321 16.4919 73.9321 17.7529C73.9321 19.0139 73.6749 20.1422 73.1606 21.1378C72.6462 22.1167 71.9327 22.8883 71.0201 23.4524C70.1241 24.0166 69.0788 24.2987 67.8841 24.2987C66.9052 24.2987 66.0423 24.1079 65.2957 23.7262C64.549 23.328 63.96 22.7804 63.5286 22.0836V29.4756H61.0397ZM67.4859 22.1333C68.2492 22.1333 68.9212 21.9508 69.5019 21.5858C70.0992 21.2207 70.5638 20.7064 70.8957 20.0427C71.2441 19.379 71.4183 18.6074 71.4183 17.728C71.4183 16.8486 71.2441 16.0853 70.8957 15.4382C70.5638 14.7745 70.0992 14.2601 69.5019 13.8951C68.9212 13.5135 68.2492 13.3227 67.4859 13.3227C66.706 13.3227 66.0174 13.5135 65.4201 13.8951C64.8394 14.2601 64.3831 14.7745 64.0512 15.4382C63.7194 16.0853 63.5534 16.8486 63.5534 17.728C63.5534 18.6074 63.7194 19.379 64.0512 20.0427C64.3831 20.7064 64.8394 21.2207 65.4201 21.5858C66.0174 21.9508 66.706 22.1333 67.4859 22.1333ZM82.5627 24.2987C81.3847 24.2987 80.3227 24.0249 79.3769 23.4773C78.4478 22.9298 77.7094 22.1665 77.1618 21.1876C76.6309 20.192 76.3654 19.0471 76.3654 17.7529C76.3654 16.4255 76.6392 15.2723 77.1867 14.2933C77.7343 13.2978 78.4809 12.5262 79.4267 11.9787C80.3725 11.4311 81.4344 11.1573 82.6125 11.1573C83.8072 11.1573 84.8691 11.4311 85.7983 11.9787C86.7275 12.5262 87.4575 13.2895 87.9885 14.2684C88.5361 15.2474 88.8098 16.4006 88.8098 17.728C88.8098 19.0554 88.5361 20.2086 87.9885 21.1876C87.4575 22.1665 86.7192 22.9298 85.7734 23.4773C84.8276 24.0249 83.7574 24.2987 82.5627 24.2987ZM82.5627 22.1582C83.243 22.1582 83.8569 21.9923 84.4045 21.6604C84.9687 21.3286 85.4167 20.8391 85.7485 20.192C86.0969 19.5283 86.2712 18.707 86.2712 17.728C86.2712 16.749 86.1052 15.936 85.7734 15.2889C85.4415 14.6252 84.9935 14.1274 84.4294 13.7956C83.8818 13.4637 83.2762 13.2978 82.6125 13.2978C81.9488 13.2978 81.3349 13.4637 80.7707 13.7956C80.2066 14.1274 79.7503 14.6252 79.4018 15.2889C79.07 15.936 78.9041 16.749 78.9041 17.728C78.9041 18.707 79.07 19.5283 79.4018 20.192C79.7503 20.8391 80.1983 21.3286 80.7458 21.6604C81.31 21.9923 81.9156 22.1582 82.5627 22.1582ZM91.7376 24V11.456H93.9776L94.1269 13.5964C94.5251 12.8498 95.0893 12.2607 95.8194 11.8293C96.5494 11.3813 97.3874 11.1573 98.3331 11.1573C99.3287 11.1573 100.183 11.3564 100.897 11.7547C101.61 12.1529 102.166 12.7585 102.564 13.5716C102.962 14.368 103.162 15.3719 103.162 16.5831V24H100.673V16.832C100.673 15.6705 100.416 14.7911 99.9011 14.1938C99.3868 13.5964 98.6401 13.2978 97.6611 13.2978C97.014 13.2978 96.4333 13.4554 95.9189 13.7707C95.4046 14.0693 94.9897 14.5173 94.6745 15.1147C94.3758 15.712 94.2265 16.4421 94.2265 17.3049V24H91.7376Z" fill="black"/>
</svg>
