<svg width="24" height="24" viewBox="0 0 24 24" fill="none" xmlns="http://www.w3.org/2000/svg">
<path d="M8.19047 20.3809C7.02645 20.3809 6.03704 19.9737 5.22223 19.1592C4.40741 18.3447 4 17.3557 4 16.1922C4 15.0287 4.40741 14.0391 5.22223 13.2235C6.03704 12.4078 7.02645 12 8.19047 12H15.8095C16.9735 12 17.963 12.4072 18.7778 13.2217C19.5926 14.0362 20 15.0252 20 16.1887C20 17.3523 19.5926 18.3419 18.7778 19.1575C17.963 19.9731 16.9735 20.3809 15.8095 20.3809H8.19047ZM8.19047 19.2381H15.8095C16.6476 19.2381 17.3651 18.9397 17.9619 18.3429C18.5587 17.746 18.8572 17.0286 18.8572 16.1905C18.8572 15.3524 18.5587 14.6349 17.9619 14.0381C17.3651 13.4413 16.6476 13.1428 15.8095 13.1428H8.19047C7.35237 13.1428 6.63491 13.4413 6.03808 14.0381C5.44125 14.6349 5.14284 15.3524 5.14284 16.1905C5.14284 17.0286 5.44125 17.746 6.03808 18.3429C6.63491 18.9397 7.35237 19.2381 8.19047 19.2381ZM15.8087 18.2857C16.3904 18.2857 16.8852 18.0821 17.293 17.6748C17.7009 17.2676 17.9048 16.7731 17.9048 16.1913C17.9048 15.6096 17.7011 15.1148 17.2939 14.707C16.8867 14.2991 16.3922 14.0952 15.8104 14.0952C15.2286 14.0952 14.7338 14.2989 14.326 14.7061C13.9182 15.1133 13.7143 15.6078 13.7143 16.1896C13.7143 16.7714 13.9179 17.2662 14.3252 17.674C14.7324 18.0818 15.2269 18.2857 15.8087 18.2857Z" fill="#1A1B21"/>
<path d="M15.8095 11.3809C16.9735 11.3809 17.963 10.9737 18.7778 10.1592C19.5926 9.34474 20 8.35573 20 7.1922C20 6.02866 19.5926 5.03907 18.7778 4.22345C17.963 3.40782 16.9735 3 15.8095 3H8.19047C7.02645 3 6.03704 3.40724 5.22223 4.22172C4.40741 5.0362 4 6.0252 4 7.18873C4 8.35228 4.40741 9.34186 5.22223 10.1575C6.03704 10.9731 7.02645 11.3809 8.19047 11.3809H15.8095ZM15.8095 10.2381H8.19047C7.35237 10.2381 6.63491 9.93968 6.03808 9.34285C5.44125 8.74603 5.14284 8.02856 5.14284 7.19047C5.14284 6.35237 5.44125 5.63491 6.03808 5.03808C6.63491 4.44125 7.35237 4.14284 8.19047 4.14284H15.8095C16.6476 4.14284 17.3651 4.44125 17.9619 5.03808C18.5587 5.63491 18.8572 6.35237 18.8572 7.19047C18.8572 8.02856 18.5587 8.74603 17.9619 9.34285C17.3651 9.93968 16.6476 10.2381 15.8095 10.2381ZM8.19132 9.28569C7.60956 9.28569 7.11477 9.08207 6.70696 8.67483C6.29915 8.26759 6.09524 7.77309 6.09524 7.19132C6.09524 6.60956 6.29886 6.11477 6.7061 5.70696C7.11334 5.29915 7.60784 5.09524 8.18961 5.09524C8.77138 5.09524 9.26616 5.29886 9.67397 5.7061C10.0818 6.11334 10.2857 6.60784 10.2857 7.18961C10.2857 7.77138 10.0821 8.26617 9.67483 8.67398C9.26759 9.08179 8.77309 9.28569 8.19132 9.28569Z" fill="#1A1B21"/>
</svg>
